# xmcd
#
# Track frame offsets:
#	150
#	18600
#	37950
#	58050
#	79585
#	100060
#	125456
#	153581
#	177956
#	192937
#	210712
#
# Disc length: 3046 seconds
# Revision: 0
# Processed by: cddbd v1.5.2PL0 Copyright (c) Steve Scherf et al.
# Submitted via: dBpowerAMP V12.0
#
DISCID=8e0be40b
DTITLE=Dave Fields - All In A
DYEAR=2014
DGENRE=Blues Rock
TTITLE0=Changes In My Life
TTITLE1=Voodoo Eyes
TTITLE2=Let's Go Downtown
TTITLE3=Black Widow
TTITLE4=Cross Road
TTITLE5=Wake Up Jasper
TTITLE6=Black Dog
TTITLE7=Not Gonna Let You Get Away
TTITLE8=Got A Hold On Me
TTITLE9=That's All Right
TTITLE10=Lover's Holiday
EXTD=
EXTT0=
EXTT1=
EXTT2=
EXTT3=
EXTT4=
EXTT5=
EXTT6=
EXTT7=
EXTT8=
EXTT9=
EXTT10=
PLAYORDER=
